<svg xmlns="http://www.w3.org/2000/svg" version="1.1" viewBox="0 -0.19 113.53 113.53"><defs><linearGradient id="def0" x1="0.5" x2="0.5" y1="0" y2="1"><stop offset="0" stop-color="#F27E5E"/><stop offset="0.5" stop-color="#EB1C24"/><stop offset="1" stop-color="#CE2229"/></linearGradient></defs><path d="M0 87.53L30.96 56.56 0 25.6 25.8-0.19 56.76 30.77 87.73-0.19 113.53 25.6 82.56 56.57 113.53 87.53 87.73 113.33 56.77 82.36 25.8 113.33 0 87.53z" fill="#990000"/><path d="M111.64 87.53L80.68 56.57 111.64 25.6 87.73 1.69 56.76 32.66 25.8 1.69 1.88 25.6 32.85 56.56 1.88 87.53 25.8 111.45 56.77 80.48 87.73 111.44 111.64 87.53z" fill="url(#def0)"/><path d="M53.55 42.16C69.98 36.92 86.3 35.08 101.04 36.21L111.64 25.6 87.73 1.69 56.76 32.66 25.8 1.69 1.89 25.6 29.03 52.75C36.52 48.57 44.74 44.97 53.55 42.16z" fill="#FFFFFF" fill-opacity="0.1"/></svg>